<svg width="430" height="155" fill="none" xmlns="http://www.w3.org/2000/svg">
  <path d="M35.0019 35.7208 2.46655 54.0196v30.9326L61.1243 51.1871 35.0019 35.7208ZM92.785 3.34949 66.6626 18.029 92.785 32.7084V3.34949ZM88.3006 32.7084 62.1781 18.029l-26.1-14.67951V33.158l26.1 15.0392 58.6799 33.7426V51.0072L88.3006 32.7084ZM68.3445 69.1936H56.0344v12.3416h12.3101V69.1936ZM41.6389 105.791c-.9193-3.956-3.1616-6.7213-6.7043-8.2949-1.9957-.8543-4.1931-1.3039-6.6372-1.3039-4.6639 0-8.4757 1.7535-11.4804 5.2828-3.0046 3.529-4.4845 8.812-4.4845 15.871 0 7.126 1.6144 12.162 4.8657 15.107 3.2513 2.944 6.9286 4.428 11.0544 4.428 4.0585 0 7.3771-1.169 9.9557-3.507s4.193-5.395 4.776-9.172H29.6204v-9.666h24.082v31.09h-8.005l-1.2108-7.239c-2.3319 2.743-4.4172 4.676-6.2783 5.8-3.184 1.956-7.108 2.945-11.7719 2.945-7.6686 0-13.9245-2.653-18.81268-7.98C2.55619 133.824 0 126.518 0 117.234c0-9.375 2.57861-16.905 7.73583-22.5479 5.15717-5.665 11.95127-8.4975 20.42707-8.4975 7.3546 0 13.2518 1.8658 17.7139 5.5975 4.4621 3.7317 7.0183 8.3849 7.6686 13.9829H41.6389v.022ZM119.872 93.8767c1.771 2.4728 2.646 5.4177 2.646 8.8573 0 3.529-.897 6.384-2.669 8.542-.986 1.214-2.466 2.316-4.417 3.305 2.96 1.079 5.18 2.787 6.682 5.103 1.502 2.338 2.242 5.17 2.242 8.497 0 3.44-.852 6.52-2.578 9.24-1.099 1.798-2.467 3.327-4.104 4.563-1.838 1.416-4.013 2.383-6.525 2.9-2.511.517-5.224.787-8.162.787H76.9546V87.6947h27.9384c7.041.1124 12.041 2.1581 14.979 6.182Zm-31.3921 3.8891v12.7682h14.0591c2.511 0 4.552-.472 6.121-1.438 1.57-.967 2.355-2.653 2.355-5.081 0-2.697-1.032-4.4733-3.095-5.35-1.793-.607-4.058-.8992-6.839-.8992H88.4799Zm0 22.3672v15.444h14.0361c2.512 0 4.463-.337 5.853-1.011 2.534-1.259 3.789-3.665 3.789-7.239 0-3.012-1.233-5.08-3.677-6.204-1.368-.63-3.296-.967-5.785-.99H88.4799ZM215.146 29.5163c-.516-2.248-1.794-3.8216-3.812-4.7208-1.121-.4946-2.377-.7418-3.767-.7418-2.646 0-4.821.9891-6.525 2.9898-1.704 2.0007-2.556 5.0131-2.556 9.0145 0 4.0464.919 6.9014 2.758 8.5874 1.838 1.686 3.946 2.5178 6.278 2.5178 2.31 0 4.193-.652 5.651-1.9783 1.48-1.3263 2.376-3.0573 2.713-5.2154h-7.602v-5.4851h13.678v17.6693h-4.552l-.695-4.1138c-1.323 1.5511-2.511 2.6526-3.565 3.2821-1.816 1.1015-4.036 1.6635-6.682 1.6635-4.35 0-7.915-1.5062-10.695-4.541-2.893-3.0348-4.35-7.1936-4.35-12.4539 0-5.3278 1.457-9.599 4.394-12.8137 2.915-3.2146 6.795-4.8107 11.615-4.8107 4.171 0 7.534 1.0566 10.068 3.1922 2.534 2.1131 3.991 4.7658 4.35 7.9354h-6.704v.0225ZM249.609 20.0972c1.211.517 2.243 1.2813 3.072 2.2929.695.8318 1.256 1.7535 1.66 2.7651.403 1.0116.605 2.1581.605 3.4619 0 1.5736-.404 3.1023-1.188 4.6084-.785 1.5062-2.086 2.5852-3.902 3.2147 1.525.6069 2.579 1.4837 3.229 2.6077.628 1.124.942 2.8324.942 5.1479v2.203c0 1.5062.067 2.5178.179 3.0573.179.8543.605 1.4837 1.278 1.8659v.8317h-7.579c-.202-.7193-.358-1.3263-.448-1.7534-.18-.9217-.269-1.8659-.292-2.8325l-.045-3.0573c-.022-2.0906-.381-3.5069-1.076-4.2038-.695-.6968-1.995-1.0565-3.901-1.0565h-6.705v12.9035h-6.704V19.2429h15.696c2.242.045 3.969.3372 5.179.8543Zm-14.171 4.8781V33.81h7.377c1.458 0 2.557-.1798 3.296-.5395 1.301-.6295 1.951-1.8659 1.951-3.7092 0-2.0008-.628-3.3271-1.883-4.024-.695-.3821-1.772-.5844-3.184-.5844h-7.557v.0224ZM261.516 19.2429h6.973v20.2096c0 2.2705.269 3.9115.808 4.9456.829 1.8434 2.623 2.765 5.426 2.765 2.758 0 4.574-.9216 5.404-2.765.538-1.0341.807-2.6976.807-4.9456V19.2429h6.973V39.475c0 3.5069-.538 6.2269-1.614 8.1827-2.018 3.5743-5.875 5.3503-11.548 5.3503s-9.529-1.776-11.57-5.3503c-1.076-1.9558-1.614-4.6758-1.614-8.1827V19.2429h-.045ZM316.519 37.9239c-1.929 1.6185-4.664 2.4053-8.229 2.4053h-6.839v11.847h-6.817V19.2429h14.104c3.251 0 5.852.8543 7.781 2.5403 1.928 1.7084 2.892 4.3161 2.892 7.8905-.022 3.889-.986 6.6541-2.892 8.2502Zm-5.247-11.8695c-.875-.7194-2.085-1.1015-3.655-1.1015h-6.189v9.6889h6.189c1.57 0 2.78-.4047 3.655-1.1915.874-.7868 1.3-2.0457 1.3-3.7542 0-1.686-.426-2.8999-1.3-3.6417ZM350.175 49.2538c-2.489 2.5627-6.076 3.8441-10.763 3.8441-4.686 0-8.274-1.2814-10.763-3.8441-3.318-3.1472-5-7.6657-5-13.578 0-6.0246 1.659-10.5656 5-13.5779 2.489-2.5628 6.077-3.8441 10.763-3.8441 4.687 0 8.274 1.2813 10.763 3.8441 3.319 3.0123 4.978 7.5533 4.978 13.5779 0 5.9123-1.659 10.4308-4.978 13.578Zm-4.283-5.0131c1.592-2.0007 2.4-4.8781 2.4-8.5874 0-3.6867-.808-6.5416-2.4-8.5649-1.592-2.0232-3.744-3.0348-6.48-3.0348-2.713 0-4.888 1.0116-6.502 3.0124-1.615 2.0007-2.422 4.8781-2.422 8.5873 0 3.7093.807 6.5642 2.422 8.5874 1.614 2.0008 3.789 3.0124 6.502 3.0124 2.736 0 4.888-.9892 6.48-3.0124ZM216.491 67.8223c1.031 1.4387 1.547 3.1472 1.547 5.1479 0 2.0682-.516 3.7092-1.569 4.9681-.583.6969-1.435 1.3488-2.557 1.9333 1.727.6294 3.005 1.6185 3.88 2.9673.874 1.3489 1.3 3.0124 1.3 4.9457 0 2.0007-.493 3.7991-1.502 5.3727-.628 1.0566-1.435 1.9333-2.377 2.6526-1.076.8318-2.332 1.3938-3.812 1.686-1.457.3148-3.049.4497-4.754.4497H191.49V64.2255h16.256c4.126.0674 7.019 1.2588 8.745 3.5968Zm-18.274 2.2705v7.4409h8.184c1.457 0 2.646-.2698 3.565-.8318s1.368-1.5511 1.368-2.9674c0-1.5736-.606-2.6077-1.816-3.1022-1.032-.3597-2.355-.5171-3.969-.5171h-7.332v-.0224Zm0 13.0159v8.992h8.161c1.458 0 2.601-.2023 3.409-.5844 1.48-.7419 2.22-2.1356 2.22-4.2038 0-1.7535-.718-2.9674-2.153-3.6193-.807-.3597-1.928-.562-3.363-.562h-8.274v-.0225ZM250.036 70.2052h-17.804v7.1711h16.346v5.8673h-16.346v8.6773h18.633v6.0696h-25.517v-33.765h24.688v5.9797ZM256.336 64.2255h7.041v27.6729h16.795v6.0696h-23.836V64.2255ZM305.89 64.2255v5.9797h-10.067V97.968h-7.086V70.2052h-10.112v-5.9797h27.265ZM331.565 65.1022c1.233.5395 2.287 1.3263 3.139 2.3604.717.8542 1.278 1.7984 1.681 2.8325.426 1.0341.628 2.2255.628 3.5518 0 1.5961-.403 3.1697-1.211 4.7208-.807 1.5512-2.13 2.6527-3.991 3.2821 1.547.6295 2.646 1.5062 3.296 2.6752.651 1.1464.965 2.8999.965 5.2828v2.2705c0 1.5511.067 2.5852.179 3.1247.179.8767.628 1.5061 1.3 1.9333v.8542h-7.758c-.224-.7418-.359-1.3488-.448-1.7984-.18-.9442-.292-1.9108-.292-2.8999l-.045-3.1247c-.022-2.1581-.403-3.5969-1.121-4.2937-.717-.7194-2.04-1.0791-4.013-1.0791h-6.862v13.2408h-6.861v-33.81h16.099c2.31.0449 4.081.3372 5.315.8767Zm-14.53 4.9906v9.0594h7.556c1.502 0 2.624-.1798 3.386-.5395 1.323-.6519 1.996-1.9108 1.996-3.7991 0-2.0457-.651-3.417-1.929-4.1139-.717-.4046-1.816-.5845-3.251-.5845h-7.758v-.0224ZM353.404 64.2255h7.96l11.907 33.7426h-7.624l-2.22-6.9464h-12.4l-2.287 6.9464h-7.355l12.019-33.7426Zm-.471 20.9964h8.611l-4.261-13.2857-4.35 13.2857Zm12.198-30.5279-6.951 6.8339h-4.709l4.373-6.8339h7.287ZM377.419 64.2255h7.377l13.364 23.5141V64.2255h6.547V97.968h-7.04l-13.701-23.9412V97.968h-6.547V64.2255ZM168.641 0h-4.081v155h4.081V0ZM193.194 118.02c1.659-1.686 3.744-2.54 6.301-2.54 3.408 0 5.897 1.124 7.466 3.395.875 1.281 1.346 2.54 1.413 3.821h-4.283c-.269-.989-.628-1.731-1.054-2.225-.762-.877-1.883-1.327-3.385-1.327-1.525 0-2.736.63-3.61 1.889-.875 1.259-1.323 3.034-1.323 5.35 0 2.293.47 4.024 1.39 5.17.919 1.147 2.108 1.731 3.543 1.731 1.457 0 2.578-.494 3.363-1.483.426-.54.785-1.327 1.054-2.383h4.26c-.359 2.248-1.3 4.069-2.803 5.462-1.502 1.394-3.43 2.114-5.785 2.114-2.915 0-5.202-.945-6.883-2.833-1.66-1.911-2.512-4.518-2.512-7.823 0-3.619.942-6.384 2.848-8.318ZM227.568 134.566c-1.547 1.596-3.79 2.405-6.705 2.405-2.937 0-5.157-.809-6.704-2.405-2.085-1.956-3.117-4.789-3.117-8.475 0-3.754 1.032-6.587 3.117-8.475 1.547-1.596 3.789-2.406 6.704-2.406 2.938 0 5.158.81 6.705 2.406 2.063 1.888 3.094 4.698 3.094 8.475 0 3.709-1.031 6.519-3.094 8.475Zm-2.691-3.103c.987-1.258 1.502-3.034 1.502-5.35 0-2.293-.493-4.091-1.502-5.35-.987-1.259-2.332-1.888-4.036-1.888-1.704 0-3.05.629-4.059 1.888-1.009 1.259-1.524 3.035-1.524 5.35 0 2.316.515 4.092 1.524 5.35 1.009 1.259 2.355 1.889 4.059 1.889 1.704 0 3.049-.652 4.036-1.889ZM233.846 115.862h4.485l8.139 14.32v-14.32h3.991v20.525h-4.282l-8.342-14.567v14.567h-3.991v-20.525ZM257.547 130.07c.134.944.404 1.641.785 2.113.717.854 1.928 1.259 3.655 1.259 1.031 0 1.861-.113 2.511-.338 1.211-.427 1.839-1.214 1.839-2.382 0-.675-.292-1.192-.897-1.574-.606-.36-1.547-.674-2.848-.967l-2.22-.494c-2.175-.472-3.677-1.012-4.484-1.574-1.391-.944-2.063-2.428-2.063-4.451 0-1.843.672-3.372 2.018-4.586 1.345-1.214 3.341-1.821 5.942-1.821 2.175 0 4.058.585 5.583 1.731 1.547 1.147 2.354 2.81 2.422 4.991h-4.104c-.067-1.237-.627-2.113-1.659-2.63-.695-.338-1.525-.517-2.556-.517-1.121 0-2.041.224-2.713.674-.673.45-1.009 1.079-1.009 1.866 0 .742.336 1.281.986 1.641.426.247 1.323.517 2.714.854l3.587.854c1.57.383 2.758.877 3.543 1.484 1.211.967 1.839 2.36 1.839 4.204 0 1.866-.718 3.439-2.175 4.676-1.458 1.236-3.498 1.865-6.122 1.865-2.691 0-4.821-.606-6.368-1.82-1.547-1.214-2.309-2.9-2.309-5.036h4.103v-.022ZM288.333 115.862v3.642h-6.121v16.905h-4.305v-16.905h-6.167v-3.642h16.593ZM303.962 116.402c.762.315 1.39.809 1.928 1.439.426.517.785 1.101 1.032 1.73.246.63.381 1.349.381 2.159 0 .966-.247 1.933-.74 2.877-.493.944-1.301 1.619-2.422 2.001.942.382 1.615.921 2.018 1.618.404.697.583 1.776.583 3.215v1.371c0 .944.045 1.574.113 1.911.112.54.381.922.784 1.169v.517h-4.731c-.134-.45-.224-.832-.269-1.101-.112-.585-.179-1.169-.179-1.776l-.023-1.911c-.022-1.304-.246-2.181-.672-2.608-.426-.427-1.256-.652-2.445-.652h-4.17v8.048h-4.193v-20.524h9.799c1.367.022 2.444.18 3.206.517Zm-8.857 3.035v5.507h4.597c.919 0 1.592-.112 2.063-.337.807-.382 1.21-1.169 1.21-2.315 0-1.237-.381-2.091-1.166-2.518-.448-.247-1.098-.36-1.973-.36h-4.731v.023ZM311.384 115.862h4.35v12.612c0 1.416.157 2.45.493 3.079.516 1.147 1.637 1.731 3.386 1.731 1.726 0 2.848-.584 3.363-1.731.337-.652.494-1.686.494-3.079v-12.612h4.35v12.612c0 2.18-.337 3.889-1.009 5.103-1.256 2.225-3.655 3.349-7.198 3.349-3.543 0-5.942-1.124-7.22-3.349-.673-1.214-1.009-2.923-1.009-5.103v-12.612ZM333.896 118.02c1.66-1.686 3.745-2.54 6.301-2.54 3.408 0 5.897 1.124 7.467 3.395.874 1.281 1.345 2.54 1.412 3.821h-4.282c-.269-.989-.628-1.731-1.054-2.225-.763-.9-1.884-1.327-3.386-1.327-1.525 0-2.736.63-3.61 1.889-.875 1.259-1.323 3.034-1.323 5.35 0 2.293.471 4.024 1.39 5.17.92 1.147 2.108 1.731 3.543 1.731 1.457 0 2.579-.494 3.363-1.483.426-.54.785-1.327 1.054-2.383h4.261c-.359 2.248-1.301 4.069-2.803 5.462-1.503 1.394-3.431 2.114-5.785 2.114-2.915 0-5.202-.945-6.884-2.833-1.659-1.911-2.511-4.518-2.511-7.823 0-3.619.941-6.384 2.847-8.318ZM367.351 115.862v3.642h-6.122v16.905h-4.305v-16.905h-6.166v-3.642h16.593ZM385.132 134.566c-1.547 1.596-3.789 2.405-6.704 2.405-2.938 0-5.157-.809-6.705-2.405-2.085-1.956-3.116-4.789-3.116-8.475 0-3.754 1.031-6.587 3.116-8.475 1.548-1.596 3.79-2.406 6.705-2.406 2.937 0 5.157.81 6.704 2.406 2.063 1.888 3.095 4.698 3.095 8.475 0 3.709-1.032 6.519-3.095 8.475Zm-2.668-3.103c.987-1.258 1.502-3.034 1.502-5.35 0-2.293-.493-4.091-1.502-5.35-.987-1.259-2.332-1.888-4.036-1.888-1.704 0-3.05.629-4.059 1.888-1.009 1.259-1.524 3.035-1.524 5.35 0 2.316.515 4.092 1.524 5.35 1.009 1.259 2.355 1.889 4.059 1.889 1.682-.023 3.027-.652 4.036-1.889ZM404.617 116.402c.763.315 1.391.809 1.929 1.439.426.517.785 1.101 1.031 1.73.247.63.381 1.349.381 2.159 0 .966-.246 1.933-.739 2.877-.494.944-1.301 1.619-2.422 2.001.942.382 1.614.921 2.018 1.618.403.697.583 1.776.583 3.215v1.371c0 .944.045 1.574.112 1.911.112.54.381.922.785 1.169v.517h-4.731c-.135-.45-.225-.832-.269-1.101-.113-.585-.18-1.169-.18-1.776l-.022-1.911c-.023-1.304-.247-2.181-.673-2.608-.426-.427-1.256-.652-2.444-.652h-4.171v8.048h-4.193v-20.524h9.799c1.368.022 2.444.18 3.206.517Zm-8.834 3.035v5.507h4.597c.919 0 1.592-.112 2.062-.337.808-.382 1.211-1.169 1.211-2.315 0-1.237-.381-2.091-1.166-2.518-.448-.247-1.098-.36-1.973-.36h-4.731v.023ZM417.892 115.862h4.843l7.242 20.525h-4.641l-1.345-4.227h-7.534l-1.391 4.227h-4.484l7.31-20.525Zm-.269 12.791h5.246l-2.578-8.07-2.668 8.07Z" fill="#fff"/>
</svg>