<svg width="272" height="98" viewBox="0 0 272 98" fill="none" xmlns="http://www.w3.org/2000/svg">
<path d="M3.16632 32.0617V51.5138L56.5961 20.8401V2.1113L3.16632 32.0617Z" fill="#F19E50"/>
<path d="M77.1038 32.0617V51.5138L23.6741 20.8596V2.1113L77.1038 32.0617Z" fill="#E65F43"/>
<path d="M44.0059 43.4984H36.2446V51.2596H44.0059V43.4984Z" fill="#F19E50"/>
<path d="M27.1931 66.5085C26.6066 64.0256 25.199 62.2857 22.9703 61.2886C21.7191 60.7412 20.3311 60.4676 18.7866 60.4676C15.8542 60.4676 13.4495 61.5819 11.5532 63.791C9.65685 66.0002 8.71846 69.3236 8.71846 73.7614C8.71846 78.2384 9.73505 81.4054 11.7878 83.2627C13.821 85.1199 16.1474 86.0583 18.7671 86.0583C21.3281 86.0583 23.4199 85.335 25.0426 83.8687C26.6652 82.4025 27.6818 80.4866 28.0533 78.1015H19.6273V72.0215H34.798V91.5714H29.7541L28.9917 87.0162C27.5254 88.7366 26.2156 89.9487 25.0426 90.6525C23.029 91.8842 20.5657 92.4902 17.6332 92.4902C12.8044 92.4902 8.85531 90.8285 5.76643 87.4854C2.54071 84.1229 0.937622 79.5287 0.937622 73.7028C0.937622 67.7987 2.56026 63.0872 5.80553 59.5292C9.05081 55.9711 13.3518 54.192 18.6889 54.192C23.3222 54.192 27.0367 55.365 29.8518 57.711C32.667 60.057 34.2701 62.9895 34.6807 66.4889H27.1931V66.5085Z" fill="black"/>
<path d="M76.4978 59.0209C77.6121 60.5653 78.1791 62.4226 78.1791 64.573C78.1791 66.8017 77.6121 68.5808 76.4978 69.9297C75.8722 70.6921 74.9338 71.3764 73.7217 72.002C75.5789 72.6862 76.9865 73.7419 77.9249 75.2082C78.8633 76.6744 79.352 78.4534 79.352 80.5453C79.352 82.6958 78.8046 84.6312 77.7294 86.3516C77.0452 87.4855 76.185 88.4434 75.1488 89.2254C73.9758 90.1247 72.6073 90.7307 71.0238 91.0631C69.4403 91.3954 67.7199 91.5518 65.8822 91.5518H49.4603V55.1305H67.0747C71.493 55.1891 74.6405 56.499 76.4978 59.0209ZM56.7133 61.4646V69.4996H65.5694C67.1529 69.4996 68.4432 69.2064 69.4207 68.6003C70.3982 67.9943 70.9065 66.9386 70.9065 65.3941C70.9065 63.6933 70.2614 62.579 68.9515 62.0316C67.8176 61.6601 66.3905 61.4646 64.6506 61.4646H56.7133V61.4646ZM56.7133 75.521V85.2372H65.5499C67.1334 85.2372 68.365 85.0222 69.2448 84.5921C70.8479 83.8101 71.6299 82.2852 71.6299 80.037C71.6299 78.1406 70.8479 76.8308 69.3034 76.127C68.4432 75.736 67.2311 75.521 65.6672 75.5014H56.7133V75.521Z" fill="black"/>
<path d="M136.535 18.5527C136.203 17.1451 135.401 16.1481 134.131 15.5812C133.427 15.2684 132.625 15.112 131.765 15.112C130.103 15.112 128.735 15.7376 127.66 16.9887C126.584 18.279 126.057 20.1754 126.057 22.6973C126.057 25.2388 126.643 27.0374 127.797 28.0931C128.95 29.1488 130.279 29.6766 131.765 29.6766C133.212 29.6766 134.404 29.2661 135.323 28.4254C136.242 27.5848 136.829 26.5095 137.044 25.1606H132.254V21.7003H140.875V32.8046H138.002L137.571 30.224C136.731 31.2015 135.988 31.8857 135.323 32.2963C134.189 33.0001 132.782 33.352 131.12 33.352C128.383 33.352 126.135 32.394 124.375 30.4977C122.557 28.5818 121.638 25.9817 121.638 22.6778C121.638 19.3347 122.557 16.6368 124.395 14.6232C126.233 12.6096 128.676 11.593 131.707 11.593C134.346 11.593 136.457 12.2577 138.041 13.5871C139.644 14.9165 140.543 16.5782 140.778 18.5723H136.535V18.5527Z" fill="black"/>
<path d="M158.255 12.6291C159.018 12.9614 159.663 13.4306 160.191 14.0758C160.621 14.6036 160.973 15.1706 161.227 15.8157C161.481 16.4608 161.618 17.1842 161.618 17.9857C161.618 18.9632 161.364 19.9407 160.875 20.8791C160.386 21.8371 159.565 22.5017 158.412 22.8927C159.37 23.2837 160.034 23.8311 160.445 24.5349C160.836 25.2387 161.051 26.314 161.051 27.7802V29.1682C161.051 30.1066 161.09 30.7518 161.168 31.0841C161.285 31.612 161.54 32.003 161.97 32.2571V32.785H157.2C157.063 32.3353 156.985 31.9639 156.926 31.6706C156.809 31.0841 156.75 30.4976 156.75 29.8916L156.73 27.9757C156.711 26.6463 156.476 25.7666 156.046 25.3365C155.616 24.8868 154.795 24.6718 153.583 24.6718H149.321V32.785H145.098V12.1012H154.99C156.398 12.1403 157.493 12.3163 158.255 12.6291ZM149.321 15.6984V21.2506H153.974C154.893 21.2506 155.596 21.1333 156.046 20.9182C156.867 20.5272 157.278 19.7452 157.278 18.5918C157.278 17.3406 156.887 16.4999 156.085 16.0698C155.636 15.8352 154.971 15.6984 154.091 15.6984H149.321Z" fill="black"/>
<path d="M165.762 12.1012H170.161V24.8086C170.161 26.2358 170.337 27.2719 170.669 27.9171C171.197 29.0705 172.331 29.657 174.091 29.657C175.831 29.657 176.964 29.0705 177.492 27.9171C177.825 27.2719 178.001 26.2162 178.001 24.8086V12.1012H182.399V24.8282C182.399 27.0373 182.067 28.7381 181.383 29.9698C180.112 32.218 177.688 33.3324 174.11 33.3324C170.533 33.3324 168.108 32.218 166.818 29.9698C166.134 28.7381 165.801 27.0373 165.801 24.8282V12.1012H165.762Z" fill="black"/>
<path d="M200.424 23.8507C199.212 24.8673 197.492 25.3756 195.244 25.3756H190.943V32.8241H186.642V12.1012H195.537C197.59 12.1012 199.212 12.6291 200.444 13.7043C201.656 14.7796 202.262 16.4217 202.262 18.67C202.242 21.0942 201.636 22.8341 200.424 23.8507ZM197.12 16.3826C196.573 15.933 195.81 15.6984 194.813 15.6984H190.923V21.798H194.813C195.791 21.798 196.573 21.5438 197.12 21.0551C197.668 20.5663 197.941 19.7648 197.941 18.6895C197.941 17.6143 197.668 16.8518 197.12 16.3826Z" fill="black"/>
<path d="M221.636 30.9669C220.072 32.57 217.804 33.391 214.852 33.391C211.9 33.391 209.632 32.5895 208.068 30.9669C205.976 28.9923 204.921 26.1381 204.921 22.4236C204.921 18.6309 205.976 15.7962 208.068 13.8803C209.632 12.2772 211.9 11.4561 214.852 11.4561C217.804 11.4561 220.072 12.2577 221.636 13.8803C223.728 15.7766 224.764 18.6309 224.764 22.4236C224.764 26.1381 223.728 28.9923 221.636 30.9669ZM218.938 27.8193C219.935 26.5486 220.443 24.75 220.443 22.4236C220.443 20.0971 219.935 18.2986 218.938 17.0474C217.941 15.7766 216.572 15.151 214.852 15.151C213.132 15.151 211.763 15.7766 210.747 17.0474C209.73 18.3181 209.222 20.1167 209.222 22.4431C209.222 24.7696 209.73 26.5681 210.747 27.8389C211.763 29.1096 213.132 29.7352 214.852 29.7352C216.572 29.7352 217.941 29.0705 218.938 27.8193Z" fill="black"/>
<path d="M137.376 42.6381C138.021 43.5374 138.354 44.6126 138.354 45.8834C138.354 47.1737 138.021 48.2098 137.376 49.0113C137.005 49.461 136.477 49.852 135.753 50.2234C136.829 50.6144 137.65 51.24 138.197 52.1002C138.745 52.9604 139.018 53.9966 139.018 55.2086C139.018 56.4598 138.705 57.5937 138.08 58.5908C137.689 59.2555 137.181 59.8029 136.574 60.2525C135.89 60.7608 135.089 61.1323 134.17 61.3082C133.251 61.5037 132.254 61.6014 131.179 61.6014H121.619V40.3899H131.863C134.463 40.4094 136.301 41.1719 137.376 42.6381ZM125.861 44.0652V48.7376H131.022C131.941 48.7376 132.684 48.5617 133.271 48.2098C133.837 47.8579 134.131 47.2323 134.131 46.3526C134.131 45.3555 133.759 44.7104 132.997 44.3976C132.332 44.1825 131.511 44.0652 130.494 44.0652H125.861ZM125.861 52.2566V57.9065H131.003C131.922 57.9065 132.645 57.7892 133.153 57.5351C134.092 57.0659 134.541 56.1861 134.541 54.8959C134.541 53.8011 134.092 53.0386 133.192 52.6281C132.684 52.3935 131.98 52.2762 131.081 52.2762H125.861V52.2566Z" fill="black"/>
<path d="M158.529 44.1434H147.307V48.6399H157.61V52.3153H147.307V57.7697H159.057V61.5819H142.987V40.3899H158.548V44.1434H158.529Z" fill="black"/>
<path d="M162.498 40.3899H166.935V57.7892H177.531V61.6014H162.517V40.3899H162.498Z" fill="black"/>
<path d="M193.738 40.3899V44.1434H187.385V61.6014H182.927V44.1434H176.554V40.3899H193.738Z" fill="black"/>
<path d="M209.906 40.9177C210.688 41.2501 211.353 41.7388 211.9 42.4035C212.35 42.9313 212.702 43.5374 212.975 44.1825C213.229 44.8277 213.366 45.5706 213.366 46.4112C213.366 47.4278 213.112 48.4053 212.604 49.3828C212.096 50.3603 211.255 51.0445 210.082 51.4551C211.059 51.8461 211.744 52.413 212.154 53.1364C212.565 53.8597 212.76 54.974 212.76 56.4598V57.887C212.76 58.8645 212.799 59.5096 212.878 59.8615C212.995 60.4089 213.269 60.8195 213.699 61.0736V61.6014H208.811C208.674 61.1323 208.577 60.7608 208.518 60.4676C208.401 59.8811 208.342 59.2555 208.322 58.6494L208.303 56.6749C208.283 55.3259 208.049 54.4267 207.599 53.977C207.149 53.5274 206.309 53.2928 205.077 53.2928H200.757V61.6014H196.417V40.3899H206.563C208.01 40.4094 209.143 40.5854 209.906 40.9177ZM200.757 44.0652V49.7542H205.527C206.465 49.7542 207.189 49.6369 207.658 49.4023C208.498 48.9918 208.909 48.2098 208.909 47.0173C208.909 45.727 208.498 44.8668 207.697 44.4367C207.247 44.1825 206.563 44.0652 205.644 44.0652H200.757Z" fill="black"/>
<path d="M223.669 40.3899H228.693L236.2 61.6015H231.391L229.984 57.2419H222.164L220.717 61.6015H216.084L223.669 40.3899ZM223.376 53.5665H228.811L226.132 45.2187L223.376 53.5665ZM231.059 34.3881L226.68 38.6891H223.708L226.465 34.3881H231.059Z" fill="black"/>
<path d="M238.82 40.3899H243.473L251.899 55.1695V40.3899H256.024V61.5819H251.586L242.945 46.5285V61.5819H238.82V40.3899Z" fill="black"/>
<path d="M107.211 -6.10352e-05H104.65V97.4364H107.211V-6.10352e-05Z" fill="black"/>
<path d="M122.694 74.1916C123.73 73.1359 125.06 72.5885 126.663 72.5885C128.813 72.5885 130.377 73.2923 131.374 74.7195C131.922 75.521 132.215 76.3226 132.254 77.1241H129.576C129.4 76.4985 129.185 76.0293 128.911 75.7165C128.422 75.1496 127.718 74.8759 126.78 74.8759C125.822 74.8759 125.06 75.2669 124.512 76.0684C123.965 76.8504 123.672 77.9843 123.672 79.431C123.672 80.8777 123.965 81.9725 124.551 82.6763C125.138 83.3996 125.881 83.7515 126.78 83.7515C127.699 83.7515 128.403 83.4387 128.891 82.8326C129.165 82.5003 129.38 81.992 129.556 81.3273H132.234C132 82.7349 131.413 83.8883 130.455 84.7681C129.497 85.6478 128.285 86.0975 126.8 86.0975C124.962 86.0975 123.515 85.511 122.46 84.3184C121.404 83.1259 120.876 81.4837 120.876 79.3919C120.915 77.1436 121.502 75.4037 122.694 74.1916Z" fill="#E65F43"/>
<path d="M144.355 84.5921C143.378 85.5892 141.97 86.0975 140.133 86.0975C138.295 86.0975 136.887 85.5892 135.91 84.5921C134.6 83.3605 133.955 81.5815 133.955 79.2746C133.955 76.9091 134.6 75.13 135.91 73.957C136.887 72.96 138.295 72.4517 140.133 72.4517C141.97 72.4517 143.378 72.96 144.355 73.957C145.665 75.1496 146.31 76.9091 146.31 79.2746C146.31 81.601 145.665 83.3605 144.355 84.5921ZM142.674 82.6372C143.3 81.8552 143.612 80.7213 143.612 79.2746C143.612 77.8279 143.3 76.7136 142.674 75.912C142.048 75.13 141.208 74.7195 140.133 74.7195C139.057 74.7195 138.217 75.1105 137.572 75.8925C136.926 76.6745 136.614 77.8083 136.614 79.255C136.614 80.7017 136.926 81.8356 137.572 82.6176C138.217 83.3996 139.057 83.7906 140.133 83.7906C141.188 83.8297 142.048 83.4192 142.674 82.6372Z" fill="#E65F43"/>
<path d="M148.324 72.8426H151.159L156.281 81.8356V72.8426H158.803V85.7455H156.105L150.846 76.5962V85.7455H148.324V72.8426Z" fill="#E65F43"/>
<path d="M163.26 81.7574C163.338 82.3439 163.514 82.7935 163.749 83.0868C164.198 83.6146 164.961 83.8883 166.056 83.8883C166.701 83.8883 167.229 83.8101 167.639 83.6733C168.402 83.3996 168.793 82.9108 168.793 82.1679C168.793 81.7378 168.597 81.4055 168.226 81.1709C167.854 80.9363 167.248 80.7408 166.427 80.5648L165.039 80.252C163.671 79.9392 162.713 79.6264 162.204 79.255C161.325 78.6685 160.895 77.7301 160.895 76.4594C160.895 75.3059 161.325 74.348 162.165 73.5855C163.025 72.8231 164.257 72.4321 165.919 72.4321C167.287 72.4321 168.48 72.784 169.438 73.5073C170.415 74.2307 170.924 75.2668 170.963 76.6549H168.363C168.323 75.8729 167.972 75.3255 167.326 74.9931C166.896 74.7781 166.369 74.6608 165.723 74.6608C165.02 74.6608 164.433 74.7976 164.023 75.0909C163.612 75.3841 163.377 75.7556 163.377 76.2639C163.377 76.7331 163.592 77.0654 164.003 77.3C164.277 77.4564 164.844 77.6324 165.723 77.8279L167.991 78.3557C168.988 78.5903 169.731 78.9031 170.22 79.2941C170.982 79.9001 171.373 80.7799 171.373 81.9333C171.373 83.1063 170.924 84.0838 170.005 84.8658C169.086 85.6478 167.796 86.0388 166.134 86.0388C164.433 86.0388 163.104 85.6478 162.126 84.8854C161.149 84.1229 160.66 83.0672 160.66 81.7183H163.26V81.7574Z" fill="#E65F43"/>
<path d="M182.654 72.8426V75.13H178.783V85.7455H176.065V75.13H172.194V72.8426H182.654Z" fill="#E65F43"/>
<path d="M192.507 73.175C192.976 73.3705 193.386 73.6833 193.719 74.0743C193.992 74.4066 194.207 74.7585 194.364 75.1691C194.52 75.5601 194.598 76.0097 194.598 76.518C194.598 77.124 194.442 77.7301 194.129 78.3166C193.816 78.9031 193.308 79.3332 192.604 79.5678C193.191 79.8024 193.621 80.1543 193.875 80.5844C194.129 81.034 194.247 81.6987 194.247 82.598V83.4582C194.247 84.0447 194.266 84.4552 194.325 84.6507C194.403 84.9831 194.559 85.2372 194.814 85.3936V85.726H191.842C191.764 85.4327 191.705 85.2177 191.666 85.0417C191.588 84.6703 191.549 84.3184 191.549 83.9274L191.529 82.7348C191.51 81.9138 191.373 81.3664 191.099 81.0927C190.825 80.819 190.317 80.6821 189.555 80.6821H186.915V85.7455H184.276V72.8426H190.454C191.353 72.8622 192.037 72.9599 192.507 73.175ZM186.935 75.0909V78.5512H189.828C190.395 78.5512 190.845 78.473 191.119 78.3361C191.627 78.082 191.881 77.6128 191.881 76.8894C191.881 76.1075 191.627 75.5796 191.138 75.3059C190.864 75.1495 190.454 75.0713 189.887 75.0713H186.935V75.0909Z" fill="#E65F43"/>
<path d="M197.179 72.8426H199.916V80.7799C199.916 81.6596 200.014 82.3048 200.229 82.7153C200.561 83.4386 201.265 83.8101 202.36 83.8101C203.455 83.8101 204.158 83.4582 204.471 82.7153C204.686 82.3048 204.784 81.6596 204.784 80.7799V72.8426H207.521V80.7799C207.521 82.1484 207.306 83.2236 206.876 83.986C206.074 85.3936 204.569 86.0974 202.34 86.0974C200.112 86.0974 198.587 85.3936 197.785 83.986C197.355 83.2236 197.14 82.1484 197.14 80.7799V72.8426H197.179Z" fill="#E65F43"/>
<path d="M211.372 74.1916C212.408 73.1359 213.738 72.5885 215.341 72.5885C217.491 72.5885 219.055 73.2923 220.052 74.7195C220.6 75.521 220.893 76.3226 220.932 77.1241H218.234C218.058 76.4985 217.843 76.0293 217.57 75.7165C217.081 75.1496 216.377 74.8759 215.439 74.8759C214.481 74.8759 213.718 75.2669 213.171 76.0684C212.623 76.8504 212.33 77.9843 212.33 79.431C212.33 80.8777 212.623 81.9725 213.21 82.6763C213.796 83.3996 214.539 83.7515 215.439 83.7515C216.357 83.7515 217.061 83.4387 217.55 82.8326C217.824 82.5003 218.039 81.992 218.215 81.3273H220.893C220.658 82.7349 220.072 83.8883 219.114 84.7681C218.156 85.6478 216.944 86.0975 215.458 86.0975C213.62 86.0975 212.174 85.511 211.118 84.3184C210.062 83.1259 209.535 81.4837 209.535 79.3919C209.574 77.1436 210.18 75.4037 211.372 74.1916Z" fill="#E65F43"/>
<path d="M232.467 72.8426V75.13H228.596V85.7455H225.878V75.13H222.007V72.8426H232.467Z" fill="#E65F43"/>
<path d="M243.669 84.5921C242.691 85.5892 241.284 86.0975 239.446 86.0975C237.608 86.0975 236.201 85.5892 235.223 84.5921C233.913 83.3605 233.268 81.5815 233.268 79.2746C233.268 76.9091 233.913 75.13 235.223 73.957C236.201 72.96 237.608 72.4517 239.446 72.4517C241.284 72.4517 242.691 72.96 243.669 73.957C244.978 75.1496 245.624 76.9091 245.624 79.2746C245.624 81.601 244.978 83.3605 243.669 84.5921ZM241.987 82.6372C242.613 81.8552 242.926 80.7213 242.926 79.2746C242.926 77.8279 242.613 76.7136 241.987 75.912C241.362 75.13 240.521 74.7195 239.446 74.7195C238.371 74.7195 237.53 75.1105 236.885 75.8925C236.24 76.6745 235.927 77.8083 235.927 79.255C235.927 80.7017 236.24 81.8356 236.885 82.6176C237.53 83.3996 238.371 83.7906 239.446 83.7906C240.502 83.8297 241.362 83.4192 241.987 82.6372Z" fill="#E65F43"/>
<path d="M255.946 73.175C256.415 73.3705 256.826 73.6833 257.158 74.0743C257.432 74.4066 257.647 74.7585 257.803 75.1691C257.96 75.5601 258.038 76.0097 258.038 76.518C258.038 77.124 257.881 77.7301 257.569 78.3166C257.256 78.9031 256.747 79.3332 256.044 79.5678C256.63 79.8024 257.06 80.1543 257.314 80.5844C257.569 81.034 257.686 81.6987 257.686 82.598V83.4582C257.686 84.0447 257.705 84.4552 257.764 84.6507C257.842 84.9831 257.999 85.2372 258.253 85.3936V85.726H255.281C255.203 85.4327 255.144 85.2177 255.105 85.0417C255.027 84.6703 254.988 84.3184 254.988 83.9274L254.968 82.7348C254.949 81.9138 254.812 81.3664 254.538 81.0927C254.265 80.819 253.756 80.6821 252.994 80.6821H250.355V85.7455H247.715V72.8426H253.893C254.792 72.8622 255.477 72.9599 255.946 73.175ZM250.374 75.0909V78.5512H253.268C253.835 78.5512 254.284 78.473 254.558 78.3361C255.066 78.082 255.32 77.6128 255.32 76.8894C255.32 76.1075 255.066 75.5796 254.577 75.3059C254.304 75.1495 253.893 75.0713 253.326 75.0713H250.374V75.0909Z" fill="#E65F43"/>
<path d="M264.333 72.8426H267.383L271.957 85.7455H269.025L268.165 83.0867H263.414L262.534 85.7455H259.719L264.333 72.8426ZM264.137 80.8776H267.441L265.819 75.7947L264.137 80.8776Z" fill="#E65F43"/>
</svg>
