<svg width="28" height="28" viewBox="0 0 28 28" fill="none" xmlns="http://www.w3.org/2000/svg">
<path d="M19.5423 2.50455H8.04685C4.87247 2.50455 2.29913 5.07789 2.29913 8.25226V19.7477C2.29913 22.9221 4.87247 25.4954 8.04685 25.4954H19.5423C22.7166 25.4954 25.29 22.9221 25.29 19.7477V8.25226C25.29 5.07789 22.7166 2.50455 19.5423 2.50455Z" stroke="white" stroke-width="2.29909" stroke-linecap="round" stroke-linejoin="round"/>
<path d="M18.3928 13.2758C18.5346 14.2325 18.3712 15.2096 17.9258 16.068C17.4803 16.9265 16.7755 17.6227 15.9116 18.0575C15.0477 18.4923 14.0687 18.6437 13.1138 18.49C12.1589 18.3364 11.2768 17.8855 10.5929 17.2017C9.90904 16.5178 9.45821 15.6356 9.30456 14.6808C9.15091 13.7259 9.30226 12.7469 9.73708 11.883C10.1719 11.0191 10.8681 10.3143 11.7265 9.86881C12.585 9.42337 13.5621 9.25996 14.5188 9.40182C15.4947 9.54653 16.3981 10.0013 17.0957 10.6989C17.7933 11.3965 18.2481 12.2999 18.3928 13.2758Z" stroke="white" stroke-width="2.29909" stroke-linecap="round" stroke-linejoin="round"/>
<path d="M20.1171 7.67749H20.1292" stroke="white" stroke-width="2.29909" stroke-linecap="round" stroke-linejoin="round"/>
</svg>
