<svg width="27" height="27" viewBox="0 0 27 27" fill="none" xmlns="http://www.w3.org/2000/svg">
<path d="M20.8282 5.21533C19.986 5.21533 19.2969 5.90444 19.2969 6.74669C19.2969 7.60425 19.986 8.29337 20.8282 8.29337C21.6858 8.29337 22.3749 7.60425 22.3749 6.74669C22.3749 5.90444 21.6858 5.21533 20.8282 5.21533Z" fill="white"/>
<path d="M13.9829 7.19043C10.4148 7.19043 7.52051 10.0847 7.52051 13.6528C7.52051 17.2208 10.4148 20.1151 13.9829 20.1151C17.5509 20.1151 20.4452 17.2208 20.4452 13.6528C20.4452 10.0847 17.5509 7.19043 13.9829 7.19043ZM13.9829 17.8028C11.7011 17.8028 9.84818 15.9498 9.84818 13.6681C9.84818 11.3864 11.7011 9.53341 13.9829 9.53341C16.2646 9.53341 18.1175 11.3864 18.1175 13.6681C18.1175 15.9498 16.2646 17.8028 13.9829 17.8028Z" fill="white"/>
<path d="M19.1135 26.7763H8.63895C4.28988 26.7763 0.752441 23.2389 0.752441 18.8898V8.41531C0.752441 4.06625 4.28988 0.528809 8.63895 0.528809H19.1135C23.4625 0.528809 27 4.06625 27 8.41531V18.8898C27 23.2389 23.4625 26.7763 19.1135 26.7763ZM8.63895 2.9943C5.65279 2.9943 3.21793 5.42916 3.21793 8.41531V18.8898C3.21793 21.876 5.65279 24.3108 8.63895 24.3108H19.1135C22.0996 24.3108 24.5345 21.876 24.5345 18.8898V8.41531C24.5345 5.42916 22.0996 2.9943 19.1135 2.9943H8.63895Z" fill="white"/>
</svg>
