<svg width="64" height="79" viewBox="0 0 64 79" fill="none" xmlns="http://www.w3.org/2000/svg">
<g clip-path="url(#clip0_313_28)">
<path d="M1.79553 25.8323V41.505L44.8444 16.7909V1.70099L1.79553 25.8323Z" fill="#F19E50"/>
<path d="M61.3677 25.8323V41.505L18.3188 16.8067V1.70102L61.3677 25.8323Z" fill="#E65F43"/>
<path d="M34.7004 35.0469H28.447V41.3002H34.7004V35.0469Z" fill="#F19E50"/>
<path d="M21.1543 53.5865C20.6817 51.586 19.5476 50.1841 17.7519 49.3808C16.7438 48.9398 15.6255 48.7193 14.3811 48.7193C12.0184 48.7193 10.081 49.6171 8.55306 51.397C7.02517 53.1769 6.2691 55.8547 6.2691 59.4303C6.2691 63.0374 7.08817 65.5891 8.74208 67.0855C10.3802 68.5819 12.2547 69.338 14.3654 69.338C16.4288 69.338 18.1142 68.7552 19.4216 67.5738C20.729 66.3924 21.548 64.8488 21.8473 62.9271H15.0584V58.0284H27.2816V73.7799H23.2177L22.6034 70.1098C21.422 71.4959 20.3667 72.4725 19.4216 73.0396C17.7992 74.0319 15.8145 74.5202 13.4518 74.5202C9.56116 74.5202 6.37936 73.1813 3.89062 70.4878C1.29162 67.7786 0 64.077 0 59.383C0 54.6261 1.30737 50.83 3.92212 47.9632C6.53687 45.0964 10.0022 43.663 14.3024 43.663C18.0355 43.663 21.0282 44.6081 23.2965 46.4983C25.5647 48.3885 26.8563 50.7512 27.1871 53.5707H21.1543V53.5865Z" fill="black"/>
<path d="M60.8794 47.5536C61.7773 48.7979 62.234 50.2943 62.234 52.027C62.234 53.8226 61.7773 55.256 60.8794 56.3429C60.3754 56.9572 59.6193 57.5085 58.6427 58.0126C60.1391 58.5639 61.2732 59.4144 62.0293 60.5958C62.7853 61.7772 63.1791 63.2105 63.1791 64.896C63.1791 66.6286 62.7381 68.188 61.8718 69.5741C61.3205 70.4877 60.6274 71.2596 59.7926 71.8896C58.8475 72.6142 57.7449 73.1025 56.469 73.3703C55.1931 73.638 53.807 73.7641 52.3264 73.7641H39.0951V44.419H53.2872C56.847 44.4663 59.383 45.5216 60.8794 47.5536ZM44.9389 49.5225V55.9964H52.0743C53.3502 55.9964 54.3898 55.7601 55.1774 55.2718C55.9649 54.7835 56.3745 53.9329 56.3745 52.6885C56.3745 51.3182 55.8547 50.4203 54.7993 49.9793C53.8857 49.68 52.7359 49.5225 51.334 49.5225H44.9389ZM44.9389 60.8478V68.6763H52.0586C53.3344 68.6763 54.3268 68.503 55.0356 68.1565C56.3272 67.5265 56.9573 66.2978 56.9573 64.4864C56.9573 62.9585 56.3272 61.9032 55.0829 61.3361C54.3898 61.0211 53.4132 60.8478 52.1531 60.8321H44.9389V60.8478Z" fill="black"/>
</g>
<defs>
<clipPath id="clip0_313_28">
<rect width="63.6389" height="79" fill="white"/>
</clipPath>
</defs>
</svg>
